<?xml version="1.0" encoding="utf-8"?>
<!-- Generator: Adobe Illustrator 25.0.0, SVG Export Plug-In . SVG Version: 6.00 Build 0)  -->
<svg version="1.1" id="Calque_1" xmlns="http://www.w3.org/2000/svg" xmlns:xlink="http://www.w3.org/1999/xlink" x="0px" y="0px"
	 viewBox="0 0 42.3 42.3" style="enable-background:new 0 0 42.3 42.3;" xml:space="preserve">
<style type="text/css">
	.st0{fill:#613F30;}
	.st1{fill:none;stroke:#FFFFFF;stroke-width:2.583;stroke-linecap:round;}
	.st2{fill:#FFFFFF;}
</style>
<g>
	<g>
		<path class="st0" d="M21.2,0c11.7,0,21.2,9.5,21.2,21.2c0,11.7-9.5,21.2-21.2,21.2C9.5,42.3,0,32.9,0,21.2C0,9.5,9.5,0,21.2,0"/>
		<path class="st1" d="M29.8,31.5c0,2.5-2,4.5-4.5,4.5H17c-2.5,0-4.5-2-4.5-4.5V10.8c0-2.5,2-4.5,4.5-4.5h8.4c2.5,0,4.5,2,4.5,4.5
			V31.5z"/>
		<line class="st1" x1="17" y1="17.3" x2="25.4" y2="17.3"/>
		<line class="st1" x1="13.3" y1="17.3" x2="29" y2="17.3"/>
		<path class="st2" d="M18.3,22.1c0,0.8-0.7,1.5-1.5,1.5c-0.8,0-1.5-0.7-1.5-1.5c0-0.8,0.7-1.5,1.5-1.5
			C17.7,20.6,18.3,21.3,18.3,22.1"/>
		<path class="st2" d="M16.8,24.8c0.8,0,1.5,0.7,1.5,1.5c0,0.8-0.7,1.5-1.5,1.5c-0.8,0-1.5-0.7-1.5-1.5C15.3,25.4,16,24.8,16.8,24.8
			"/>
		<path class="st2" d="M18.3,30.4c0,0.8-0.7,1.5-1.5,1.5c-0.8,0-1.5-0.7-1.5-1.5c0-0.8,0.7-1.5,1.5-1.5
			C17.7,28.9,18.3,29.6,18.3,30.4"/>
		<path class="st2" d="M24,22.1c0,0.8,0.7,1.5,1.5,1.5c0.8,0,1.5-0.7,1.5-1.5c0-0.8-0.7-1.5-1.5-1.5C24.7,20.6,24,21.3,24,22.1"/>
		<path class="st2" d="M25.5,24.8c-0.8,0-1.5,0.7-1.5,1.5c0,0.8,0.7,1.5,1.5,1.5c0.8,0,1.5-0.7,1.5-1.5C27,25.4,26.3,24.8,25.5,24.8
			"/>
		<path class="st2" d="M24,30.4c0,0.8,0.7,1.5,1.5,1.5c0.8,0,1.5-0.7,1.5-1.5c0-0.8-0.7-1.5-1.5-1.5C24.7,28.9,24,29.6,24,30.4"/>
		<path class="st2" d="M22.7,22.1c0,0.8-0.7,1.5-1.5,1.5s-1.5-0.7-1.5-1.5c0-0.8,0.7-1.5,1.5-1.5S22.7,21.3,22.7,22.1"/>
		<path class="st2" d="M21.2,24.8c0.8,0,1.5,0.7,1.5,1.5c0,0.8-0.7,1.5-1.5,1.5c-0.8,0-1.5-0.7-1.5-1.5
			C19.7,25.4,20.3,24.8,21.2,24.8"/>
		<path class="st2" d="M22.7,30.4c0,0.8-0.7,1.5-1.5,1.5s-1.5-0.7-1.5-1.5c0-0.8,0.7-1.5,1.5-1.5S22.7,29.6,22.7,30.4"/>
	</g>
</g>
</svg>
