<?xml version="1.0" encoding="utf-8"?>
<!-- Generator: Adobe Illustrator 25.0.0, SVG Export Plug-In . SVG Version: 6.00 Build 0)  -->
<svg version="1.1" xmlns="http://www.w3.org/2000/svg" xmlns:xlink="http://www.w3.org/1999/xlink" x="0px" y="0px"
	 viewBox="0 0 2392.6 666" style="enable-background:new 0 0 2392.6 666;" xml:space="preserve">
<style type="text/css">
	.st0{fill:#31318A;}
	.st1{fill:#FFFFFF;}
	.st2{fill:#E81C2C;}
</style>
<g id="VNega">
	<g>
		<g>
			<rect x="1254.2" y="511.8" class="st0" width="121.9" height="28.1"/>
			<rect x="1376.1" y="511.8" class="st1" width="121.9" height="28.1"/>
			<rect x="1498" y="511.8" class="st2" width="121.9" height="28.1"/>
		</g>
		<path class="st1" d="M1000.7,372.7c3.3-1.9,6.6-4.1,10.3-5.8c2.3-1.1,4.1-2.3,6.1-3.8c1.4-1.4,2.9-2.5,4.4-3.6
			c2.9-2,4.8-4.8,7.4-6.9c2.2-1.7,3.8-3.7,5.5-5.8c0.8-0.9,1.8-2.2,2.7-3.3c2.5-3.8,5.1-7.9,3.9-13.2c0-0.4,0-0.8,0-1.1
			c0.3-4.2-1.4-7.6-3.8-10.8c-0.9-1-1.8-2.2-2.7-3c-3.2-3.6-7.2-6.1-11.9-7.8c-1.9-0.6-4.3-10.2-6-12.1c-0.1-0.1-0.4-0.1-0.5-0.1
			c-3.4-0.3-6.7-1.5-9.5-1.1c-5.3,0.1-11.1,10.9-15.9,12.8c-1,0.4-2,0.6-3,1c-3.6,1.1-7.1,2-10.4,3.7c-3.8,1.8-7.1,3.7-10.7,5.7
			c-4.2,2-8.1,4.2-12.4,5.7c-0.1,0-0.3,0.1-0.4,0.3c1.4,1.5-0.6,1.4-1,1.9c-0.8,0.8-1.8,1.3-2.5,1.8c-8,5.3-15.4,11.3-22.1,18.3
			c-5.1,5.1-8.4,11.1-11.4,17.2c-0.4,0.8-0.5,1.4-0.9,2.2c-0.9,3.2-1.1,6.2,1.5,8.6c1.3,3.2,4.1,3.9,6.9,4.7c1.5,0.5,3,0.4,3.7-1.5
			c0.3-0.5,0.9-1,1.3-1.7c0.5-0.6,0.9-1.3,0.5-2c-0.3-1-1.1-1-1.9-1.1c-0.4-0.1-1.1,0.1-1.5,0.3c-0.6,0.3-1,0.5-1.6,0.9
			c-0.4,0.1-0.9,0.3-1.4-0.1c-0.3-0.5-0.1-0.9,0-1.1c1.8-3.6,4.1-6.7,6.1-10.2c1.3-1.4,2.3-3,3.7-4.2c3.7-3.4,7.4-7,11.2-10.4
			c0.4-0.3,0.9-0.6,1.3-0.9c4.4-3.6,8.9-7,14-9.9c2.5-1.4,5.1-3.3,7.7-4.7c2.4-1.5,4.8-2.7,7.1-4.3c2.7-1.7,5.3-3.4,8.5-4.7
			c4.1-1.7,8.4-3.2,12.4-4.7c0.8-0.3,1.5-0.6,2.3-0.8c0.3-0.3,0.8,0,1,0.1c0.1,0.3,0.1,0.8,0.1,0.9c-0.8,0.9-1.3,1.8-1.8,2.8
			c-2.5,3.7-5.1,7.4-7.7,11.2c-2,2.8-3.8,5.5-5.6,8.5c-2.2,3.8-4.7,7.6-7.1,11.4c-0.4,0.6-0.6,1-0.9,1.6c-0.6,1-1.6,1.8-1.3,3.4
			c0,0.4-0.1,0.6-0.4,0.6c-1.1,0.3-1.3,0.9-1.1,1.9c0.1,0.8-0.3,1.4-0.6,2c-3.7,6.5-7.4,12.7-11,18.9c-2.9,5.2-6,10.3-8.6,15.6
			c-2.4,4.3-5,8.8-7.4,13.3c-3.4,6-6.4,12.3-9,18.7c-0.3,0.8-0.4,1.4-0.4,2c0,1.1,0.3,2,1.1,2c1.8-0.1,2.8,1,4.1,1.5
			c1,0.5,1.6,0.4,2-0.6c0.5-1.3,1.1-2.9,2.2-3.9c1-1.1,1.6-2.5,2.3-3.9c0.5-1.3,1.1-2.7,1.9-3.7c2.3-4.4,4.8-8.8,7.5-13.3
			c1.5-2.5,3-5.2,4.6-7.9c1-2,2.4-3.9,3.6-6c0.8-1.5,2-2.9,2.8-4.4c2.2-4.7,5.5-8.4,8-13.1c0.5-1,1.3-1,2.2,0
			c2.7,3.2,5.6,5.3,9.9,5.2c1.7,0,3.4,0.1,5-0.5c1.7-1,3.4-1.1,5.1-0.3c0.9,0.1,1.4,0.3,2.2,0.3c2.7,0.4,2.8,0.6,2.8,3.3
			c0,0.8,0,1.4-0.1,2.2c-0.4,3-1.6,5.7-2.9,8.5c-2.9,5.7-6.9,10.8-11.3,15.2c-6.7,6.7-14.1,12.7-22,17.8c-4.4,2.8-8.5,5.8-13.1,8.3
			c-1.3,0.9-2.2,1.3-3.4,0.9c-0.6-0.1-1.4-0.1-2,0c-0.8,0.1-1.4,1.1-1,1.9c1.3,2.4,3.4,4.6,6.1,5.6c3.8,1.1,7.7,1.1,11.4-0.8
			c2.8-1.4,5.6-2.9,8-4.7c3.8-2.9,7.9-5.2,11.6-7.9c3.3-2.7,6.5-5.2,9.8-7.9c3.4-2.8,6.5-6,8.8-9.7c1.1-2,3-3.9,4.6-5.7
			c1.5-1.4,2.5-3.3,3.6-5.1c1.4-2.8,2.3-6,2.8-9.2c0-0.4,0.3-1,0.4-1.4c1.1-3.3,0.9-6.5-1.7-9c-2.7-2.7-6-4.7-9.1-7.2
			c-0.8-0.6-2.3-0.9-3.3-1.5c-0.8-0.5-0.8-1,0-1.4C999.9,373.1,1000.3,372.8,1000.7,372.7z M944,334.3v0.3h-0.1L944,334.3z
			 M977.6,433.3l-0.1,0.1v-0.1l0.1-0.1V433.3z M984.6,368.4c-1.1,0.4-2.3,0.5-3.3,0.6c-0.6,0-1.1-0.4-0.6-1c1.5-2.8,3.2-5.8,5.1-8.4
			c2.5-3.3,4.7-6.9,7-10.3c3-4.8,6.1-9.7,9.5-14.2c1.9-2.9,3.9-6.2,6-9.2c1.1-1.9,2.3-3.7,3.6-5.3c1.3-1.9,2.4-3.8,3-5.8
			c0.3-0.8,0.9-1.4,1.7-1.1c3.3,0.5,6.5-0.3,9.5,1.1c1.1,0.3,1.9,0.6,2.4,1.3c3.3,4.6,5.2,6.7,4.7,12.2c0.6,3.9-1.8,7.1-4.2,10.3
			c-4.4,6.1-10.2,11.2-16.5,15.8c-4.1,2.9-7.7,6-12.2,8.1C995.2,364.7,990,367.2,984.6,368.4z M1192.8,348.7c1-1.8,2.3-2.7,4.3-2.7
			c1.7,0,3.3-0.1,5-0.4c5.7-0.8,10.9,0.9,16.4,2.2c1.3,0.3,1.9,1.1,1.9,2.4c0.1,0.9,0.4,1.8,0.9,2.5c1.1,1.5,2.8,1.8,4.2,0.4
			c1.1-1.1,1.4-2.9,0.5-4.4c-0.6-1-1.6-1.9-2.3-2.9c-1.3-2.5-3.4-3.7-6-4.4c-3-1-6.1-1.9-9.3-2.2c-2.3-0.3-4.7-0.6-7-1
			c-2.2-0.3-2.2-0.4-1-2.4c1.5-2.7,3.2-5.2,4.4-8.1c0.9-2.2,1.9-4.4,2.9-6.7c0.9-2.3,2.3-4.3,1.9-7c0-0.4,0.4-0.8,0.5-1.1
			c0.1-0.3,0.3-0.5,0.1-0.8c-0.3-2.5-2.3-3.7-4.1-4.6c-1.4-0.5-3,0.1-4.2,1.4c-1,0.9-2,1.8-2,3.2c0,0.5-0.3,1.1-0.5,1.5
			c-1.4,1.7-1.9,3.8-2.9,5.7c-3.2,5.7-6.3,11.4-9.4,17.3c-1,2-2.5,2.9-4.7,3.4c-2.5,0.5-5.1,0.4-7.6,0.6c-5.6,0.6-11.1,1-16.5,1.8
			c-4.2,0.6-8.6,0.8-12.6,2.5c-0.4,0.3-0.9,0.3-1.1,0.1c-1.4-0.2-1.9,0.6-2.5,1.4c-0.6,0.8,0,1.3,0.1,2c0.3,1.3,0.9,2.3,1.5,3.4
			c0.8,1.3,1.5,1.5,2.7,1.3c2.8-0.4,5.5-0.9,8.3-0.9c0.1,0,0.4-0.1,0.6-0.1c2.5-1.1,5.3-1.3,8-1.8c4.8-0.8,9.5-1.3,14.3-1.8
			c0.5-0.1,1-0.1,1.5,0c0.6,0,0.9,0.5,0.8,1c-0.4,1.1-0.9,2.2-1.3,3.2c-2.4,4.8-4.8,9.8-7.4,14.5c-2,3.8-4.6,7.4-5.8,11.6
			c-0.1,0.4-0.4,0.6-0.6,1c-0.8,1.3-1.5,2.7-2.2,4.1c0,0,0,0-0.1,0c-1.5-0.4-2.8,0.3-3.8,1.1c-2.3,1.6-4.4,3.3-6.5,5.2
			c-3.2,2.8-6.5,5.5-9.6,8.3c-5.2,4.7-10.8,8.6-16.6,12.3c-5.7,3.7-11.8,6.5-17.7,9.7c-0.4,0.1-0.8,0.4-1.1,0.5
			c-2.8,0.4-5.6,0.8-8.5,1.1c-0.4,0.1-0.8,0-1.1,0c-1.1-0.1-2-0.6-2.4-1.9c-0.2-1.3-0.6-2.7-0.6-4.1c-0.1-2,0.4-3.9,0.5-5.8
			c0.1-4.1,2-7.4,4.1-10.7c0.3-0.4,0.6-0.9,1.1-0.8s0.5,0.6,0.6,1c0.8,2.7,3,4.6,5.8,4.4c4.1-0.1,8-0.6,11.7-2.9
			c1.6-1.1,3.6-2.2,5.2-3.2c1.9-1.3,3.6-2.5,5.1-4.1c2.8-2.8,5.1-5.8,7.2-9c1.5-2,2.2-4.2,2.5-6.6c0.1-0.9,0.1-1.8,0.8-2.8
			c0.6-1,0.4-2.3-0.6-3.2c-0.5-0.4-0.9-0.9-1.4-1.1c-1.6-1-3-2.4-4.7-3.6c-3.7-2.7-7.7-3.9-12.2-2.7c-2.3,0.5-4.4,1.3-6.5,2.3
			c-2.3,1-4.2,2.5-5.6,4.7c-1.3,1.8-2.8,3.3-5,3.9c-0.8,0.3-1.3,0.6-1.6,1.3c-1,1.5-1.8,3.1-3.4,3.9c-0.3,0.1-0.5,0.5-0.5,0.8
			c0,1-0.6,1.5-1.1,2.3c-2.2,2.9-4.4,5.6-6.1,8.8c-0.2,0.3-0.3,0.7-0.5,1l-0.1,0.1l0,0.1c-2,3.8-3.7,7.6-4.6,12
			c-0.5,2.5-0.3,4.8,0.1,7.1c-2,1.5-4,2.9-5.9,4.4c-0.8,0.5-1.7,0.8-2.5,1.1c-0.5,0.1-1-0.1-1.4-0.4c-0.3,0.4-0.5,0.6-0.8,0.9
			c-0.3,0.3-0.5,0.5-0.8,0.1c-0.1-0.1-0.1-0.4,0-0.5c0.3-0.5,0.5-0.9,0.8-1.3c0.5-0.6,1.1-1.3,1.5-1.9c0.1-0.3,0.3-0.6,0.1-0.9
			c-0.1-0.4-0.5-0.3-0.8,0c-0.5,0.1-0.9,0.4-1.4,0.8c-2.5,1.7-5.1,3.3-7.9,4.8c-1.4,0.8-3,1.1-4.7,1c-2.3-0.1-2.9-1.1-2-3.3
			c0.4-1,0.9-2,0.9-3.2c0.3-4.1,1.9-7.6,3.7-10.9c2.2-3.9,4.7-7.5,7.2-11.2c1.5-2.3,3-4.6,4.8-6.7c1.4-1.5,1.9-3.3,2.3-5.2
			c0.3-1.4-0.5-2.7-0.1-3.9c-1.1-0.9-1.3-2.3-1.8-3.3c-0.4-0.6-1-1.1-1.7-1.4c-0.8-0.3-1.7-0.5-2.3-0.9c-1-0.6-2.2-0.6-3.3-0.4
			c-2.4,0.5-5.1,0.6-7.6,0.6c-1,0-1.3-0.4-0.9-1.4c1.1-3.3,2.8-6.5,4.1-9.8c0.9-2.3,0.9-4.4,1.1-6.6c0-0.6-0.4-1.4-0.8-2
			c-1.1-1.9-2.9-3-5.1-3.8c-3.8-1.3-7.6-1.9-11.7-1.3c-4.2,0.8-7.9,2-10.5,5.5c-0.8,1-1.6,1.9-2.7,2.7c-3.2,2.5-4.7,6-4.7,10.2
			c0.1,2.5,0.8,4.8,1.5,7.2c0.4,1,1,1.9,2.2,1.9c1.4,0.3,2.2,1.1,3,1.9c1.1,1.1,2,2.4,3.1,3.4c0.4,0.4,0.6,0.7,0.7,1.1
			c-2.8,2.7-9,8.6-13.7,12.9c-0.5,0.2-0.9,0.3-1.3,0.6c-3.2,2.8-6.5,5.2-8.6,8.8c-0.6,1.1-0.5,2.7,0.5,3.2c1,0.6,2.2,1.1,3.4,1.4
			c0.9,0.3,1.7-0.6,2.4-1.1c5.6-4.2,11-8.5,16-13.3c2.9-2.9,6.2-5.3,8.9-8.5c0.9-1,2-1.3,3.3-1.3c2.9,0.3,6,0.3,8.9,0.1
			c1.1,0,2.5-0.6,3.2,0.5c0.5,1.1-0.6,2-1.3,2.9c-3.2,4.4-5.6,9.4-7.6,14.5c-1.5,3.8-2.5,7.9-2.5,12.2c0,4.1,0.6,7.6,3.4,10.8
			c1.5,1.8,3.2,3.3,5.3,4.1c1,0.4,1.8,1.3,2.8,1.1c2-0.4,3.9,0,5.8,0c1.1,0,2-0.3,2.8-1c0.5-0.4,0.9-0.8,1.4-1.1
			c4.5-2.8,8.7-6.1,12.1-10.2c0.4,0.9,0.9,1.7,1.6,2.5c1.1,0.9,2,1.9,2.7,3.2c0.6,1,1.5,1.8,2.4,2.5c2.9,2.5,6.5,3.7,10.2,4.6
			c2.5,0.6,5.2,0.1,7.6-0.6c2.4-0.9,4.6-2.2,6.5-3.9c0.5-0.6,1.3-1,1.9-1.4c2.9-1.3,5.3-3.4,8.1-5c1.7-1,3.3-2,4.9-3.1
			c0.5-0.3,0.9-0.5,1.3-0.8c0.3-0.2,0.5-0.5,0.8-0.7c0.7-0.5,1.3-0.9,2-1.4c1.9-1.1,3.6-2.8,5.2-4.3c0.4-0.3,0.5-0.6,0.4-1
			c3.3-3,6.1-5.8,8.5-8.3c0.1-0.1,0.2-0.1,0.2-0.2c0.6-0.5,1.1-1,1.5-1.6c1-1.1,2-2.1,2.8-3c1.2-0.5,1.9-1.6,2.9-2.3
			c0.2-0.1,0.3-0.2,0.4-0.3c-0.2,0.4-0.4,0.7-0.7,1.1c-0.8,2.7-2,5-3.3,7.4c-3.4,6.4-6.5,13-8.9,19.8c-0.3,0.8-0.5,1.6-0.7,2.4
			l-0.3,0.6l-0.1,0.5c-0.8,2.7-1.6,5.4-2,8.2c-0.3,2.2-0.3,4.3-1.1,6.4c-0.1,0.3-0.3,0.6,0.1,0.8c0.7,0.2,0.7,0.6,0.7,1.1l-0.2,1.6
			l0.3,0.8c0,0.6,0,1.3,0,1.9c0,4.4,0.6,8.8,3,12.7c0.4,0.5,0.6,1.3,0.8,1.9c0.3,0.6,0.5,1.1,1,1.5c0.4-0.9,1-1,1.6-0.3
			c1.4,1.5,3,2.5,5,3.4c0.9,0.4,1.8,0.6,2.7,0.4c0.5,0,0.8-0.3,0.9-0.8c0.3-0.6-0.3-0.9-0.8-1c-0.5-0.3-1.1-0.4-1.8-0.6
			c-1.4-0.3-2.3-1.1-2.5-2.7c-0.3-1.4-1-2.7-1.8-3.9c-0.3-0.5-0.4-1-0.6-1.5l2-19.1l1.5-8.6c0.5-1,0.9-2.1,1.5-3
			c0.4-0.9,0.8-1.8,1.1-2.5c2.8-6.1,5.3-12.5,8.4-18.6c2.3-4.6,4.3-9.3,6.6-13.7c4.2-8,9-15.6,13.1-23.8
			C1186.6,358.9,1189.9,353.9,1192.8,348.7z M1050.3,371.9c0,0,0-0.1-0.1-0.1c0.2-0.2,0.4-0.4,0.6-0.6
			C1050.7,371.4,1050.5,371.6,1050.3,371.9z M1053.9,364.5c0,0.1,0,0.3-0.1,0.4C1053.6,364.6,1053.7,364.6,1053.9,364.5z
			 M1047.9,372.3c-2.5-0.4-5.1-0.6-7.6-1.4c-1.5-0.5-2-1.4-1.8-3c0.3-0.9,0.6-1.8,1-2.5c1.5-3.3,3.9-6,6.7-8.3
			c1.9-1.5,3.8-3.3,6.2-4.3c1.3-0.5,2.5-0.8,3.8-0.8c0.8,0,1.1,0.5,0.9,1.3c-0.1,1-0.5,2-0.8,3.1c-0.1,0.8,0,1.7,0.4,2.4
			c-0.3,1-0.6,2.1-1,3.3c-0.7,0.5-1.7,0.2-2.1,1c-0.6,0.9-1.1,1.9-1.6,2.9c-0.4,0.6,0.1,0.9,0.6,1c-0.1,1.6-1.4,2.6-1.7,4
			c0,0,0.1-0.1,0.1-0.1c0,0.1-0.1,0.1-0.1,0.2c0,0,0-0.1,0-0.1c-0.1,0.1-0.1,0.1-0.2,0.2c-0.1,0.3-0.4,0.4-0.6,0.6v0.1
			C1049.6,372.2,1048.7,372.3,1047.9,372.3z M1116.8,379.6c3.3-2.8,7.1-4.8,11.2-6.1c0.1,0,0.1,0,0.3,0c1-0.2,2-0.5,2.8,0.3
			c0.8,1,0.1,1.9-0.4,2.8c-0.8,1.4-1.5,3-2.5,4.3c-2.9,3.2-5.7,6.9-9.8,8.9c-1,0.5-2,1.1-3,1.9c-2.8,2.2-6.2,3.3-9.8,3.7
			c-0.3,0.1-0.6,0.1-1,0.1c-0.1-0.1-0.5-0.1-0.8-0.1c-0.6-0.3-0.8-0.6-0.6-1.1c0.1-0.9,0.8-1.6,1.4-2.3
			C1108.4,387.6,1112.3,383.3,1116.8,379.6z M1112.3,377.5h0.1l-0.1,0.1l-0.1,0L1112.3,377.5z M1147.7,461.2
			c-0.1-0.1-0.4-0.4-0.6-0.6c0.2,0.3,0.5,0.4,0.8,0.6c0.1,0.3,0.4,0.4,0.6,0.6l-0.1,0C1148.2,461.7,1148,461.4,1147.7,461.2z
			 M1204.1,412.9c0,0,0-0.1,0-0.1C1204.2,412.7,1204.1,412.9,1204.1,412.9z M1189.3,388.1c-0.1,0-0.1,0.1-0.1,0.1c0-0.1,0-0.2,0-0.3
			c0.1,0,0.2,0,0.3,0C1189.3,388,1189.3,388,1189.3,388.1z M1189.6,388c-0.1,0-0.1,0-0.2,0C1189.4,387.9,1189.5,387.9,1189.6,388z
			 M1219,485.8c0,0.3,0,0.4,0,0.6c-0.1,0-0.3,0-0.5,0C1218.6,486.2,1218.9,486.1,1219,485.8z M1224.5,454.9h-0.1v-0.1
			c0.4-0.1,0.8-0.4,1.1-0.5h0.1C1225.3,454.6,1224.9,454.7,1224.5,454.9z M1297.2,391.9c-0.6-1.1-0.3-1.9,0.4-2.9
			c0.9-1.3,0.3-2.2-1.1-2.5c-0.4,0-0.9,0-1.3,0c-0.5-0.1-1-0.3-1.5-0.6c-1.8-1.3-1.9-1.3-3.6-0.3c-0.5,0.4-1.1,0.9-1.6,1.3
			c-1.9,1.8-3.8,3.6-5.8,5.2c-2.3,1.9-4.7,3.6-6.9,5.5c-5.5,4.7-11.3,9.1-17,13.6c-1.1,0.9-2.3,1.7-3.3,2.4c-0.6,0.5-1.4,0.9-2.2,1
			c-0.6,0-1.3-0.5-1.1-1.1c0.5-1.8,0.8-3.7,1.8-5.5c1.5-2.8,2.8-5.6,4.3-8.3c2.3-4.2,4.8-8.3,8-11.7c4.8-5.3,9.9-10.2,15.5-14.5
			c2.8-2.2,5.7-3.3,9.1-3.6c2.5-0.1,4.8,0.1,6.9,1.9c1.7,1.4,3.9,1.8,6.1,2.5c0.4,0,0.8-0.1,1-0.5c0.6-1.8-0.4-3.8-2.3-4.3
			c-1.6-0.5-3-1.3-4.4-2.2c-2.2-1.4-4.4-2.7-6.9-3.8c-2.2-1.1-4.6-1.7-7.1-1.4c-1.3,0.1-2.7,0.4-4.1,0.4c-1.4,0-2.5,0.5-3,1.8
			c-0.5,1.1-1.3,1.6-2.3,2.2c-0.6,0.3-1.3,0.8-1.9,1.3c-7.4,5.5-14.1,11.6-19.3,19.3c-3,4.6-6.5,9.2-8.3,14.6c0,0.2-0.1,0.3-0.1,0.5
			c-2.5,2.3-4.9,4.6-7.5,6.8c-5.3,4.7-11,8.5-17.7,11.1c-0.5,0.1-1,0.3-1.6,0.4c-1.1,0.3-1.7-0.3-1.4-1.3c0.8-3,1.1-6.1,2.7-8.9
			c2.5-5,5.2-9.8,8.8-14c0.8-0.9,1.1-1.9,1.7-2.8c0.1-0.5,0.4-1,0.3-1.4c-0.5-1.5-1.1-2.9-2.8-3.6c-1.4-0.6-3-0.6-4.6-0.9
			c-0.3,0-0.8,0.1-1,0.3c-1.1,1-2.4,1.8-3.3,2.9c-1,1.3-2.3,2.4-3.6,3.4c-2.5,2.3-5.2,4.4-7.6,6.9c-2.4,2.4-5.6,4.1-7.6,7
			c-0.3,0.4-0.9,0.8-1.3,1c-0.5,0.4-1.1,0.8-1.4,1.3c-0.6,1-1.5,1.7-2.5,2.2c-1.1,0.5-2.2,1.3-3.2,2.2c-1.3,1-2.7,2-3.9,2.9
			c-0.5,0.4-1.1,1.3-1.9,0.6c-0.5-0.6-0.3-1.4,0-2.2c0.1-0.3,0.3-0.5,0.4-0.8c0.9-3,2.4-5.8,4.1-8.6c1.9-3.7,4.1-7.2,6.5-10.5
			c2.9-3.9,5.8-7.8,9.3-11.2c2.2-2.2,4.1-4.6,6.5-6.5c1.8-1.4,3.9-2.4,5.5-4.1c1.9-2,4.3-2.7,6.9-2.9c0.5,0,1.1-0.1,1.7-0.3
			s1-0.1,1.6,0.1c4.1,1.4,6.7,4.4,8.8,8.1c-0.3,1.7,1.3,2,2.2,2.8c0.9,0.6,1.9,1.1,2.8,0.5c1-0.6,0.6-1.8,0.3-2.8
			c-1.1-3.4-3-6.5-6-8.8c-2.2-1.8-4.6-3.4-7.2-4.3c-1.8-0.6-3.7-1.4-5.5-1.8c-2.8-0.6-5.3-0.4-8.1,0.5c-4.2,1.1-7.2,3.8-10.7,6.1
			c-0.5,0.4-0.8,0.9-0.3,1.4c0.4-0.6,0.9-1,1.7-1c-0.5,0.5-1,0.9-1.7,1c-0.9,1.5-2.5,2.4-3.7,3.8c-0.1,0.1-0.4,0.4-0.6,0.4
			c-1.9,0.1-2.8,1.6-3.7,2.9c-1.9,2.8-4.2,5.2-6.3,7.9V388c0,0-0.1,0-0.2,0c0,0,0.1,0,0.1,0.1c-0.1,0.2-0.3,0.3-0.5,0.5
			c-0.1-0.1-0.1-0.2-0.1-0.3c0,0.1,0,0.2,0,0.4h0.1c-0.8,1.8-2,3.3-2.9,5c-1.4,2.2-2.8,4.3-4.1,6.6c-2.2,4.3-3.8,8.9-5.3,13.5
			c-1.5,5.1,1.6,9.5,5.1,12.1c1.9,1.4,4.2,1,6.3,0.9c0.9,0,1.5-0.4,2.2-1c1.8-1.8,3.8-3.4,5.8-4.8c1.7-1.1,2.9-2.5,4.1-4.2
			c1-1.4,2.3-2.5,3.7-3.7c0-0.1-0.1-0.3-0.1-0.4s0.1-0.1,0.1-0.3c1.1-1.7,3.2-2.8,4.7-4.2c0.3-0.3,0.5-0.9,1-0.5
			c0.4,0.3,0.1,0.6,0,1c-0.3,0.8-0.5,1.6-0.6,2.4c-0.5,1.9-0.9,3.9-1.1,6c-0.3,2.8,0.8,4.8,3,6.4c0.8,0.5,1.4,1,1.9,1.9
			c0.4,0.6,1.1,1.1,1.8,1.6c1.6,1.7,3.8,2,6,2.5c2.2,0.5,4.1,0,5.6-1.5c1.3-1,2.5-1.8,3.8-2.7c4.3-3,8.6-6,11.7-10.4
			c0.4-0.5,0.9-0.9,1.3-1.4c0.1-0.1,0.1-0.1,0.2-0.2c0.5,2.3,2.2,4.2,3.2,6.3c0.1,0.1,0.4,0.1,0.5,0.3c1.1,0.8,2.3,1.5,3.4,2.3
			c2,1.3,4.2,1.8,6.6,1.1c1.7-0.5,3.2-0.9,4.3-2.2c0.5-0.5,1.1-0.9,1.7-1.3c0.9-0.5,1.7-1.1,2-2c0.6-1,1.5-1.8,2.3-2.5
			c2.9-2.7,5.7-5.3,8.6-7.9c0.1-0.1,0.4-0.4,0.5-0.3c0.4,0.3,0.1,0.5,0,0.8c-1.9,3.2-3.7,6.6-5.8,9.8c-2.9,4.2-5.7,8.5-8.4,13
			c-1.4,2.2-2.3,4.7-3.9,6.7c-1,1.1-1.8,1.8-3.4,1.5c-2.8-0.3-5.6-0.4-8.4,0.1c-3.4,0.6-6.7,1.4-10,2c-7,1.4-12.8,4.8-18.3,9.2
			c-1.8,1.3-3.4,2.7-4.8,4.2c-2,2.2-3.9,4.6-5.8,6.9c-1.9,2.2-3.3,4.6-4.6,7.1c-0.4,1.1-0.9,2.2-1.7,3c-0.9,1.3-1.6,2.6-2.1,4
			l-0.8,1.2l0.4,0.2c-0.2,0.5-0.4,1-0.6,1.5c-0.8,2.5-0.8,5.2-0.3,7.9c0.9,3.9,3.4,6.6,7.2,8.1c1.5,0.6,3.3,1.1,5,1.8
			c1.7,0.6,3.3,0.5,5.1,0.1c3.2-0.8,6.2-2,9-3.9c3.3-2.2,6.1-5,9.4-7.2c0.8-0.6,1.5-1.1,2.3-1.8c3.2-3,6.1-6.4,8.8-9.8
			c2.9-3.8,5.7-7.8,8.6-11.7c1.5-2.2,3.1-4.2,4.8-6.2c0.8-1,1.5-1.9,2-3c0.2-0.3,0.3-0.6,0.5-0.9l1.1-1.4c0.2-0.2,0.4-0.5,0.7-0.7
			c0.5-0.3,0.9-0.9,1.4-1.4c0.5-0.6,0.9-1.6,1.4-1.6c0.8-0.1,1.7,0.6,2.4,1c0.4,0.1,0.6,0.4,0.9,0.6c4.3,3.6,6.5,8.1,6.6,13.7
			c0,1.6,0.1,3.3,0.3,4.9l-0.4,3.7c0,0,0,0,0,0c-0.4,1.2-0.1,1.5,1.4,2.1c0.1,0.7,0,1.4,0.1,2.1c0,0.3,0.1,0.5,0.5,0.5
			c0.2,0,0.5,0,0.8-0.2c0.9-0.8,1.4-1.8,1.5-3.1c0-0.9,0.1-1.6,0.5-2.5c1.1-2,1.4-4.3,2-6.6c0.1-0.6,0.1-1.3,0.4-1.8
			c1.4-2.7,1-5.5-0.4-7.8c-2.4-3.9-5.3-7.8-10-9.3c-0.8-0.3-1.5-0.6-2.2-1c-1.3-0.8-1.4-1.3-0.8-2.7c0.3-0.5,0.6-1,0.7-1.5l3.4-5.8
			c2.4-3.2,4.7-6.6,6.8-10c2.2-3.4,3.7-7.4,6.5-10.3c0.4-0.4,0.4-0.9,0.6-1.4c0.6-1.3,1-2.8,2-3.7c1.1-1.1,1.6-2.4,2.2-3.7
			c0.4-0.6,0.6-1.3,1-1.8c1.5-2.4,3.2-5,4.7-7.4C1297.3,393.7,1297.8,392.8,1297.2,391.9z M1276.5,472.3c0-0.1,0-0.2,0.1-0.3
			C1276.8,472.1,1276.7,472.2,1276.5,472.3z M1278,458.9c0.1,0.1,0.1,0.1,0.1,0.2l-0.2,0.4c0,0,0,0-0.1-0.1
			C1278,459.3,1278,459,1278,458.9z M1215.7,489.9C1215.7,489.9,1215.7,489.9,1215.7,489.9C1215.7,489.9,1215.7,489.9,1215.7,489.9
			L1215.7,489.9z M1225.9,445.9l-0.2,0.2c0,0,0,0,0-0.1C1225.8,446,1225.8,446,1225.9,445.9z M1210.6,490c-1.5-0.3-3.2,0-4.7-0.1
			c-0.8,0-1.3-0.5-1.4-1.4c-0.9-4.7,1.1-8.8,2.7-13c1.1-2.8,2.5-5.3,5.1-7.2c0.3-0.1,0.4-0.4,0.5-0.6c0.6-1.8,1.9-2.9,3.1-4.2
			c1.4-1.9,3.2-3.4,4.1-5.6c0.1-0.3,0.4-0.6,0.6-0.8c3.2-2,5.5-5.3,9-7.1c0.4-0.1,0.9-0.5,1.3-0.6c0.1-0.1,0.4,0,0.5,0
			c-0.1,0.1-0.1,0.4-0.3,0.4c-0.4,0.5-0.9,0.8-1.3,1.3c-0.1,0.1-0.1,0.4,0,0.5c0.1,0,0.4,0.1,0.5,0c2.9-1.5,5.8-2.9,9-4.1
			c3.6-1.3,7.2-2,11-2.4c0.6-0.1,1.7-0.4,2.2,0.3c0.6,0.8-0.3,1.5-0.5,2.2c-0.4,0.6-0.8,1.3-1.3,1.9c-2.9,3.7-5.6,7.5-8.4,11.2
			c-1.7,2.4-3.3,4.8-5.1,7.1c-1.1,1.4-2.3,2.8-3.3,4.3c-1.5,2.2-3,4.1-5.2,5.5c-1,0.5-1.8,1.5-2.7,2.3c-1.8,1.8-3.7,3.3-5.6,5
			c-0.2,0.3-0.5,0.4-0.6,0.6c0.2,0,0.5,0.1,0.7,0.3l-1,0.9c-0.1,0-0.3,0-0.4,0c-0.1,0.1-0.3,0.3-0.5,0.5c0,0.2,0,0.3-0.1,0.4
			l-0.8,0.7c-0.6,0.1-1.1,0.2-1.8,0.2c-0.6,0-1.3,0.1-1.5,0.5C1213.4,490.3,1212,490.1,1210.6,490z M1218.5,486.5c0,0-0.1,0-0.1,0.1
			c0,0,0,0,0-0.1C1218.4,486.5,1218.5,486.5,1218.5,486.5z M1218.4,486.5c0,0.1,0,0.3,0,0.5c-0.3,0-0.7,0-1,0
			C1217.7,486.9,1218,486.7,1218.4,486.5z M1218.4,487c0,0,0.1,0,0.1,0l-0.1,0.1C1218.4,487,1218.4,487,1218.4,487z M1450.4,384.2
			c-0.5-0.6-1.1,0-1.6-0.3c-1.5-0.4-2.8,0.3-3.8,1.1c-2.3,1.6-4.4,3.3-6.5,5.2c-3.2,2.8-6.5,5.5-9.6,8.3c-2.2,1.9-4.4,3.7-6.7,5.4
			l-2.3,1.8c-2.5,1.8-5,3.5-7.6,5.1c-5.7,3.7-11.8,6.5-17.7,9.7c-0.4,0.1-0.8,0.4-1.1,0.5c-2.8,0.4-5.6,0.8-8.5,1.1
			c-0.4,0.1-0.8,0-1.1,0c-1.1-0.1-2-0.6-2.4-1.9c-0.2-1.3-0.6-2.7-0.6-4.1c-0.1-2,0.4-3.9,0.5-5.8c0.1-4.1,2-7.4,4.1-10.7
			c0.2-0.4,0.6-0.9,1.1-0.8s0.5,0.6,0.6,1c0.8,2.7,3,4.6,5.8,4.4c4.1-0.1,8-0.6,11.7-2.9c1.6-1.1,3.6-2.2,5.2-3.2
			c1.9-1.3,3.6-2.5,5.1-4.1c2.8-2.8,5.1-5.8,7.2-9c1.5-2,2.2-4.2,2.5-6.6c0.1-0.9,0.1-1.8,0.8-2.8c0.6-1,0.4-2.3-0.6-3.2
			c-0.5-0.4-0.9-0.9-1.4-1.1c-1.6-1-3-2.4-4.7-3.6c-3.7-2.7-7.7-3.9-12.2-2.7c-2.3,0.5-4.4,1.3-6.5,2.3c-2.3,1-4.2,2.5-5.6,4.7
			c-1.3,1.8-2.8,3.3-5,3.9c-0.8,0.3-1.3,0.6-1.6,1.3c-1,1.5-1.8,3.1-3.4,3.9c-0.3,0.1-0.5,0.5-0.5,0.8c0,1-0.6,1.5-1.1,2.3
			c-2.2,2.9-4.4,5.6-6.1,8.8c-1.1,1.9-2,3.9-2.8,5.9c-1.4,1.7-3.9,4.4-6.9,7.4c-0.4,0-0.9,0-1.3,0.4c-0.4,0.3-0.6,0.8-1,1
			c-3.3,1.9-6.6,4.1-9.6,6.5c-0.4,0.3-0.9,0.5-1.3,0.8c-1.6,0.9-3.3,1.8-5,2.7c-1.1,0.8-2.4,1.3-3.8,1.4c-1,0-1.6-0.4-1.6-1.4
			c0-1.1,0.1-2.3,0.1-3.4c0.1-1.9,1.3-3.6,1.8-5.3c1-3.3,2.2-6.5,4.2-9.3c0.6-1,1.1-2,1.4-3.2c0.5-1.8,1.4-3.3,2.3-4.8
			c3.2-5.3,5.7-11.1,7-17.3c0.5-2.7,0-5-1.3-7.1c-0.9-1.5-1.4-1.8-3.2-1.3c-1,0.1-1.9,0.5-2.9,0c-0.4-0.1-0.9-0.3-0.8-0.8
			c0-0.4,0.4-0.9-0.1-1.1c-0.4-0.4-1-0.4-1.5-0.1c-2,1.4-4.4,2.2-6.5,3.8c-2.5,2-4.7,4.3-7,6.5c-2.2,2.1-4.2,4.5-6,6.9l-3.7,3.7
			c-0.6,0.2-1,0.6-1.2,1.2l-0.1,0.1l-1.6,1.3c-0.8-0.6-0.4-1.5-0.2-2.2c0.8-2.5,1.8-5.1,2.5-7.8c1-3.8,1-7.4-0.9-11.2
			c-1.4-2.7-3.4-3.4-6-3.7c-0.9,0-1.4,0.4-1.4,1.3c0,0.4,0,0.9,0,1.3c0.3,3.2,0.3,6.2-1.1,9.2c-0.4,0.6-0.5,1.3-0.6,1.8
			c-1,5.7-4.2,10.4-6.1,15.6c-2.4,2.8-2.9,6.7-5.5,9.4c-0.3,0.4-0.4,0.8-0.5,1.1c-0.4,1.3-1.1,2.4-1.9,3.5l0-0.1
			c-0.2,0.5-0.4,0.8-0.6,1.3c0,0,0,0,0,0c-0.1,0.5-0.4,0.9-0.6,1.3c-1.4,1.6-2.2,3.5-1.9,5.7c-0.9-0.1-1.7,0.2-2.2,0.9
			c-1.1,2-2.3,4.2-3.4,6.2c-0.3,0.5-0.4,1.1,0,1.5c1.4,1,2,2.5,2.5,4.2c0.1,0.6,0.6,1,1.4,0.9c0.3-0.1,0.8-0.3,0.9-0.1
			c1.3,1,1.8,0.1,2.4-0.8c2-2.9,3.9-6,6.1-8.8c2.8-3.2,5.6-6.5,8.4-9.7c2.9-3.3,5.6-6.6,8.6-9.8c3.1-3.2,5.7-6.6,8.6-9.9
			c3.1-3.4,6.6-6.4,9.5-9.8c1.5-1.8,3.3-3.3,5-4.8c0.1-0.1,0.4-0.1,0.6-0.1c0,0.1,0.1,0.4,0.1,0.5c-0.4,1.5-0.8,3-1.3,4.4
			c-0.1,0.2-0.2,0.5-0.2,0.7c-1,2.7-2.2,5.5-3.4,8.2c-0.5,0.8-1,1.6-1.5,2.4c-0.3,0.3-0.3,0.5-0.4,0.9c-0.2,1-0.7,1.9-1,2.8
			c-0.8,1.7-1.6,3.4-2.4,5c-0.2,0.4-0.4,0.8-0.6,1.2c-0.9,1.9-1.6,3.8-2.1,5.7c-0.1,0.2-0.2,0.5-0.2,0.7c-0.3,1.5-0.9,3-0.7,4.5
			c0.3,6.1,3.4,10.6,7.6,14.6c0.3,0.4,0.9,0.5,1.4,0.6c0.8,0.4,1.5,0.6,2.3,0.9c2.7,0.8,5.3,0.9,8-0.1c2.2-0.9,4.2-2.2,6.4-3.3
			c1.1-0.5,2.4-0.9,3.2-1.8c2.8-2.9,6.3-4.7,8.8-8c0,0,0.1-0.1,0.1-0.1c0.1,0.7,0.2,1.4,0.4,2.1c0.4,1.4,1,2.5,2,3.6
			c1.1,0.9,2,1.9,2.7,3.2c0.6,1,1.5,1.8,2.4,2.5c2.9,2.5,6.5,3.7,10.2,4.6c2.5,0.6,5.2,0.1,7.6-0.6c2.4-0.9,4.6-2.2,6.5-3.9
			c0.5-0.6,1.3-1,1.9-1.4c2.9-1.3,5.3-3.4,8.1-5c3.2-1.8,6.1-3.9,9.1-6c1.9-1.1,3.6-2.8,5.2-4.3c0.4-0.3,0.5-0.6,0.4-1
			c-0.1-0.5-0.5-0.5-0.9-0.5c0.5-0.4,0.9-0.7,1.4-1.1c0,0,0.1,0,0.1,0c0.3-0.1,0.5-0.2,0.8-0.5c2.4-2,4.9-4.1,7.4-6.4
			c0.7-0.6,1.3-1.3,1.8-2.2c0.8-0.8,1.7-1.7,2.5-2.5c1.2-0.5,1.9-1.6,2.9-2.3c2.5-1.5,3.9-4.1,5.8-6.2
			C1450.4,385.6,1450.9,384.8,1450.4,384.2z M1299.4,414.1C1299.4,414.1,1299.4,414.1,1299.4,414.1L1299.4,414.1
			C1299.4,414.1,1299.4,414.1,1299.4,414.1z M1407.4,395.5c-0.1,0.1-0.4,0.4-0.5,0.6c-0.1,0-0.1,0-0.2,0c0,0,0,0,0.1,0
			C1407,395.9,1407.1,395.6,1407.4,395.5c0.4-0.3,0.8-0.4,1.1-0.6l0.1,0C1408.1,395.1,1407.8,395.2,1407.4,395.5z M1402.9,379.6
			c3.3-2.8,7.1-4.8,11.2-6.1c0.1,0,0.1,0,0.3,0c1-0.2,2-0.5,2.8,0.3c0.8,1,0.1,1.9-0.4,2.8c-0.8,1.4-1.5,3-2.5,4.3
			c-2.9,3.2-5.7,6.9-9.8,8.9c-1,0.5-2,1.1-3,1.9c-2.8,2.2-6.2,3.3-9.8,3.7c-0.3,0.1-0.6,0.1-1,0.1c-0.1-0.1-0.5-0.1-0.8-0.1
			c-0.6-0.3-0.8-0.6-0.6-1.1c0.1-0.9,0.8-1.6,1.4-2.3C1394.6,387.6,1398.5,383.3,1402.9,379.6z M1458.7,428.8c2.7,2.4,2.9,6,4.1,8.8
			c-0.1,1-0.1,1.8-0.4,2.3c-2.5,4.6-5.5,8.9-10.7,11.1c-1.9,0.8-2.8-0.8-3.9-1.5c-1.1-0.8-0.4-1.9,0-2.7c1.9-4.3,3.4-8.8,3.7-13.6
			c0-1.1,0-2.3,0-3.6c0.3-1.7,1.4-2.5,3.2-2.5C1456.1,427.1,1457.5,427.8,1458.7,428.8z M1586,380c1.1-0.1,1.5-1.1,1-2.3
			c-1.3-2-2.5-3.9-5.2-4.4c-1.4-0.3-3.2-0.3-3.9-1.1c-1.5-1.5-2.7-1.1-4.1-0.1c-0.6,0.4-2,0-2.3,1.3c-1,0.1-2.2,0.4-3.1,0.4
			c-1,0-2,1-2.5-0.1c-0.4-0.6,0-1.6,0.3-2.5c0.3-0.8,0.8-1.8,1.3-2.5c1.4-2.7,2.8-5.1,3.9-7.6c1.4-2.9,2.7-5.6,4.6-8.1
			c2.9-5,6-9.8,9-14.6c1-1.9,2.2-3.7,3.3-5.5c2.9-3.7,5.7-7.4,8-11.4c0.9-1.8,2.5-2.3,4.3-2.5c6.6-0.9,13.1-0.6,19.7-1.4
			c5.3-0.5,11.2,0,16.6-0.8c0.6,0,1.4,0.1,2,0.2c0.5,0,1,0.3,1.7,0.3c2.9-0.1,5.6,0.1,8.3,1.1c1.1,0.3,2.2,0.4,3.2,0.3
			c1-0.1,1.5-0.8,1.3-1.8c-0.4-2.7-2.8-5-5.6-5.3c-1.4-0.1-2.9-0.1-3.8-1.4c-0.4-0.4-1-0.4-1.8-0.3c-0.9,0.3-1.9-0.1-2.8-0.1
			c-2.5-0.1-5.1-0.1-7.6-0.3c-2.9-0.3-6.1,0.5-8.6-1.6c-0.1-0.1-0.4-0.1-0.5-0.1c-2.2,0.3-4.6-0.1-6.1,1.9c-0.4,0.5-1,0.5-1.5,0.5
			c-0.8,0.1-1.8,0-2.7,0c-0.3,0.1-0.4,0.1-0.6,0c-2.4-0.8-4.7-1-7.2,0c-0.8,0.3-1.4,0.3-1.9,0.1c-2.2-0.3-4.2-0.1-6.3-0.1
			c-2.5,0-5,0.4-7.5,0.6c-4.9,0.5-9.6,1.4-14,3.7c-1.1,0.9-2.3,1.4-3.6,0.5c-0.4-0.4-0.9-0.3-1.1,0.4c-0.9,2.2-3,2.5-4.7,1.9
			c-2-0.6-3.7-0.1-5.3,0.6c-3.7,1.7-7.4,3.3-11.2,5c-1.4,0.5-2.8,1.3-4.2,2c-0.8,0.5-1.6,1-2.5,1.4c-3.9,1.4-6.9,4.1-9.9,6.4
			c-1.1,0.8-2.3,1.5-2.9,2.7c-1.7,0.9-3.3,2.2-3.9,4.2c0.1,0,0.1,0,0.1,0c-1.8,1.1-1.3,2.8-1.4,4.4c-0.3,1.8,0.4,3.3,1.3,4.4
			c0.8,1.1,2,2.3,3.4,1.9c3.4-0.8,6.5,0.3,9.5,0.3c1.3,0,2.3,0.4,2.9,1.7c1.7,2.9,3.6,5.7,3.9,9.5c0.6,4.4,0.1,9,0,13.6
			c-0.1,1.9-0.6,3.7-2.5,4.6c-2.4,0.3-4.7,1.1-7,2.2c-2,0.8-2.9,3.2-2.2,5.1c0.1,0.3,0.5,0.8,1,0.9c2.2,0.3,3.8,1.9,6.1,1.9
			c1.8,0.2,2.2,1.1,1.5,2.8c-0.9,2.2-1.9,4.3-2.9,6.2c-2.3,3.8-4.6,7.8-6.7,11.6c-2,3.2-3.9,6.4-5.7,9.8c-2.7,5.1-5.2,10.5-8.1,15.5
			c-1.9,3-3.6,6.5-5.3,9.7c-0.5,1.1-0.4,1.9,0.8,2.8c0.8,1,1.4,2.3,2.8,1.9c1.3-0.4,1.8,0.4,2.4,1.1c0.5,0.8,1.3,0.6,1.9,0
			c0.3-0.5,0.4-1,0.6-1.5c1.8-2.9,3.6-6,5.2-9c0.9-1.4,1.9-2.7,2.4-4.2c1.1-2.4,2.5-5,3.9-7.2c1-1.4,1.3-2.8,2.4-4.1
			c1.8-1.5,2.5-3.4,3.4-5.5c0.4-1.4,0.9-2.5,1.6-3.7c1.5-2.2,3.2-4.3,4.1-6.7c1.4-2.9,3-5.7,4.6-8.5c0.4-0.6,0.8-1.3,1.1-2
			c2.4-4.1,5-8.3,7.4-12.5c0.3-0.4,0.5-0.6,0.8-1.1c0.9-1.4,2-2.2,3.8-2.4c2.5-0.4,5.1-0.9,7.7-1.5c3.6-0.9,7.4-1.1,10.8-0.5
			C1582.9,380.9,1584.5,380.4,1586,380z M1598.4,310.7c0.1,0,0.4,0.1,0.5,0.1c0,0,0,0.1-0.1,0.1c-0.1,0-0.3,0-0.5,0
			C1598.2,310.8,1598.2,310.7,1598.4,310.7z M1539.7,345.8c-0.6-0.1-1.5-0.3-2-0.5c-0.5-0.3-0.5-0.6,0-1.3c1.7-1.1,3-2.4,4.8-3.3
			c2.7-1.5,5.5-3.1,8.1-4.6c0.8-0.5,1.8-1,2.5-1.4c5.7-2.5,11.6-5.1,17.1-7.8c3.3-1.5,6.5-2.9,10-3.4c0.9-0.1,1.8-0.9,2.7-0.8
			c0.4,0,0.6,0,0.8,0.1c0.4,0.3,0.4,0.5,0.1,0.8c-1.4,2-2.7,4.1-3.9,6.2c-2.2,3.2-4.7,6.4-6.5,9.9c-1.6,3.4-3.8,6.6-5.8,9.8
			c-0.5,0.9-1,1.9-1.4,2.9c-2.4,4.8-5.1,9.5-8,14.2c-1.1,1.9-2.3,3.9-3.3,6c-0.5,0.6-1,1.6-1.7,2.3c-0.4,0.5-0.8,1.7-1.6,1.3
			c-0.6-0.4-0.4-1.3-0.4-1.9c0.1-0.9,0.1-1.6,0.3-2.3c0.9-4.1,0.5-8.3-0.8-12.2c-0.4-1.5-1.5-2.9-0.6-4.7c0.1-0.5-0.5-1-0.8-1.4
			C1547.2,349.7,1544,347.1,1539.7,345.8z M1675.4,412.9c0,0,0-0.1,0-0.1C1675.5,412.8,1675.4,412.9,1675.4,412.9z M1660.6,388.1
			c-0.1,0-0.1,0.1-0.1,0.1c0-0.1,0-0.2,0-0.3c0.1,0,0.2,0,0.3,0C1660.7,388,1660.6,388,1660.6,388.1z M1660.9,388
			c-0.1,0-0.1,0-0.2,0C1660.7,388,1660.8,388,1660.9,388z M1789.1,404.9c-0.1,0.8-0.5,1.3-1.1,1.8
			C1788,405.9,1788.4,405.3,1789.1,404.9z M1789.3,404.8c-0.1,0-0.1,0.1-0.2,0.1c0-0.1,0-0.1,0-0.1L1789.3,404.8z M1921.2,384.2
			c-0.5-0.6-1.1,0-1.6-0.3c-1.5-0.4-2.8,0.3-3.8,1.1c-2.3,1.6-4.4,3.3-6.5,5.2c-3.2,2.8-6.5,5.5-9.6,8.3
			c-5.2,4.7-10.8,8.6-16.6,12.3c-5.7,3.7-11.8,6.5-17.7,9.7c-0.4,0.1-0.8,0.4-1.1,0.5c-2.8,0.4-5.6,0.8-8.5,1.1
			c-0.4,0.1-0.8,0-1.1,0c-1.1-0.1-2-0.6-2.4-1.9c-0.2-1.3-0.6-2.7-0.6-4.1c-0.1-2,0.4-3.9,0.5-5.8c0.1-4.1,2-7.4,4.1-10.7
			c0.3-0.4,0.6-0.9,1.1-0.8c0.5,0.1,0.5,0.6,0.6,1c0.8,2.7,3,4.6,5.8,4.4c4.1-0.1,8-0.6,11.7-2.9c1.6-1.1,3.6-2.2,5.2-3.2
			c1.9-1.3,3.6-2.5,5.1-4.1c2.8-2.8,5.1-5.8,7.2-9c1.5-2,2.2-4.2,2.5-6.6c0.1-0.9,0.1-1.8,0.8-2.8c0.6-1,0.4-2.3-0.6-3.2
			c-0.5-0.4-0.9-0.9-1.4-1.1c-1.6-1-3-2.4-4.7-3.6c-3.7-2.7-7.7-3.9-12.2-2.7c-2.3,0.5-4.4,1.3-6.5,2.3c-2.3,1-4.2,2.5-5.6,4.7
			c-1.3,1.8-2.8,3.3-5,3.9c-0.8,0.3-1.3,0.6-1.6,1.3c-1,1.5-1.8,3.1-3.4,3.9c-0.3,0.1-0.5,0.5-0.5,0.8c0,1-0.6,1.5-1.1,2.3
			c-2.2,2.9-4.4,5.6-6.1,8.8c-0.8,1.5-1.5,3-2.2,4.5c-1.4,0.2-2.3,1.3-3,2.3c-1.4,1.9-3.2,3.3-5,4.8c-4.2,3.6-8.6,6.7-13.3,9.4
			c-5.3,3.1-10.9,5.5-16.8,7.1c-0.5,0.3-1.1,0.4-1.6,0.4c-2.2,0-3.1-0.6-3.8-2.7c-0.2-0.5-0.5-1-0.6-1.6c-0.8-2.9-2-5.7-1.5-9
			c0.4-1.5,1.1-2.9,1.4-4.4c0.3-1.2,0.7-2.3,1.2-3.4c0.2-0.2,0.4-0.5,0.6-0.7c0.8-1,2.5-1.5,2.3-3.3c0-0.3-0.3-0.2-0.9,0.1
			c1.4-2.3,3.1-4.5,4.8-6.7c1.8-2.5,4.3-4.6,6.6-6.9c1.1-1.1,2.3-2.2,3.6-3c3.2-2.3,6.4-4.4,9.9-6c0.6-0.4,1.3-0.8,2-0.6
			c0.8,0,1.3,0.6,1,1.4c-0.8,1.7-1.8,3-2.9,4.4c-1.9,2.3-3.6,4.8-5.2,7.4c-0.8,1.1-0.5,2.3,0.4,3.3c0.8,1,2,1.5,3.4,1.1
			c3.3-1.3,6.1-3.3,8.1-6.2c1.9-2.7,2.7-5.8,5-8.1c0.4-0.5,0.5-1.1,0.4-1.8c0-0.8,0-1.5,0-2.4c0-1.3-0.4-2.3-1.3-3.2
			c-0.6-0.5-1.1-1.1-1.7-1.8c-0.5-0.6-1.1-1-1.9-1.3c-1.4-0.4-2.8-0.6-4.1-1c-1.5-0.4-3.3-0.6-4.7-0.3c-1.6,0.5-3.2,0.5-4.7,0.4
			c-1.4,0-2.8,0.3-3.3,1.5c-0.6,1.3-1.7,1.8-2.8,2.2c-1.4,0.2-2.7,0.9-3.7,1.8c-4.1,3.8-8.5,7.2-11.8,11.8c-2.8,4.1-6,8-8,12.6
			c-0.6,1.4-1.4,2.7-1.5,4.2c-0.1,1.2-0.2,2.4-0.3,3.6c-0.2,0.1-0.3,0.2-0.4,0.3c-0.1,0.1-0.1,0.4,0.1,0.4c0.1,0,0.1-0.1,0.2-0.2
			c0,0.3,0,0.7,0,1.1l-3.9,2.6c0.1-0.2,0.3-0.4,0.4-0.6c-0.6-0.4-1.4-0.4-2,0.3c-0.4,0.3-0.6,0.8-1,1c-3.3,1.9-6.6,4.1-9.6,6.5
			c-0.4,0.3-0.9,0.5-1.3,0.8c-1.6,0.9-3.3,1.8-5,2.7c-1.1,0.8-2.4,1.3-3.8,1.4c-1,0-1.6-0.4-1.6-1.4c0-1.1,0.1-2.3,0.1-3.4
			c0.1-1.9,1.3-3.6,1.8-5.3c1-3.3,2.2-6.5,4.2-9.3c0.6-1,1.1-2,1.4-3.2c0.5-1.8,1.4-3.3,2.3-4.8c3.2-5.3,5.7-11.1,7-17.3
			c0.5-2.7,0-5-1.3-7.1c-0.9-1.5-1.4-1.8-3.2-1.3c-1,0.1-1.9,0.5-2.9,0c0,0-0.1,0-0.1,0c-0.2-0.1-0.3-0.2-0.5-0.3
			c-0.1-0.1-0.2-0.2-0.1-0.4c0-0.4,0.4-0.9-0.1-1.1c-0.4-0.4-1-0.4-1.5-0.1c-2,1.4-4.4,2.2-6.5,3.8c-2.5,2-4.7,4.3-7,6.5
			c-2.4,2.3-4.4,4.8-6.3,7.4c-1.3,1.2-2.4,2.3-3.5,3.3c-0.4,0.2-0.8,0.5-1,0.9c-0.7,0.7-1.3,1.2-1.8,1.7c-0.8-0.6-0.5-1.5-0.3-2.2
			c0.8-2.5,1.8-5.1,2.5-7.8c1-3.8,1-7.4-0.9-11.2c-1.4-2.7-3.4-3.4-6-3.7c-0.9,0-1.4,0.4-1.4,1.3c0,0.4,0,0.9,0,1.3
			c0.3,3.2,0.3,6.2-1.1,9.2c-0.4,0.6-0.5,1.3-0.6,1.8c-0.1,0.3-0.2,0.6-0.2,0.9c-1.7,4.1-4,9.7-6.7,15.6c-0.3-0.6-0.7-0.8-1.3-0.3
			c-2.2,1.4-4.8,2-6.2,4.3c-4.6,3.9-8.9,8.3-13.5,12.2c-5.3,4.7-11,8.5-17.7,11.1c-0.5,0.1-1,0.3-1.6,0.4c-1.1,0.3-1.7-0.3-1.4-1.3
			c0.8-3,1.1-6.1,2.7-8.9c2.5-5,5.2-9.8,8.8-14c0.8-0.9,1.1-1.9,1.7-2.8c0.1-0.5,0.4-1,0.3-1.4c-0.5-1.5-1.1-2.9-2.8-3.6
			c-1.4-0.6-3-0.6-4.6-0.9c-0.3,0-0.8,0.1-1,0.3c-1.1,1-2.4,1.8-3.3,2.9c-1,1.3-2.3,2.4-3.6,3.4c-2.5,2.3-5.2,4.4-7.6,6.9
			c-2.4,2.4-5.6,4.1-7.6,7c-0.3,0.4-0.9,0.8-1.3,1c-0.5,0.4-1.1,0.8-1.4,1.3c-0.6,1-1.5,1.7-2.5,2.2c-1.1,0.5-2.2,1.3-3.2,2.2
			c-1.3,1-2.7,2-3.9,2.9c-0.5,0.4-1.1,1.3-1.9,0.6c-0.5-0.6-0.3-1.4,0-2.2c0.1-0.3,0.3-0.5,0.4-0.8c0.9-3,2.4-5.8,4.1-8.6
			c1.9-3.7,4.1-7.2,6.5-10.5c2.9-3.9,5.8-7.8,9.3-11.2c2.2-2.2,4.1-4.6,6.5-6.5c1.8-1.4,3.9-2.4,5.5-4.1c1.9-2,4.3-2.7,6.9-2.9
			c0.5,0,1.1-0.1,1.7-0.3c0.5-0.1,1-0.1,1.6,0.1c4.1,1.4,6.7,4.4,8.8,8.1c-0.3,1.7,1.3,2,2.2,2.8c0.9,0.6,1.9,1.1,2.8,0.5
			c1-0.6,0.6-1.8,0.3-2.8c-1.1-3.4-3-6.5-6-8.8c-2.2-1.8-4.6-3.4-7.2-4.3c-1.8-0.6-3.7-1.4-5.5-1.8c-2.8-0.6-5.3-0.4-8.1,0.5
			c-4.2,1.1-7.2,3.8-10.7,6.1c-0.5,0.4-0.8,0.9-0.3,1.4c0.4-0.6,0.9-1,1.7-1c-0.5,0.5-1,0.9-1.7,1c-0.9,1.5-2.5,2.4-3.7,3.8
			c-0.1,0.1-0.4,0.4-0.6,0.4c-1.9,0.1-2.8,1.6-3.7,2.9c-1.9,2.8-4.2,5.2-6.3,7.9V388c0,0-0.1,0-0.2,0c0,0,0.1,0,0.1,0.1
			c-0.1,0.2-0.3,0.3-0.5,0.5c-0.1-0.1-0.1-0.2-0.1-0.3c0,0.1,0,0.2,0,0.4l0.1,0c-0.8,1.8-2,3.3-2.9,5c-1.4,2.2-2.8,4.3-4.1,6.6
			c-2.1,4.3-3.8,8.8-5.3,13.4c-2,1.4-4,2.8-5.9,4.3c-0.8,0.5-1.7,0.8-2.5,1.1c-0.5,0.1-1-0.1-1.4-0.4c-0.3,0.4-0.5,0.6-0.8,0.9
			c-0.3,0.3-0.5,0.5-0.8,0.1c-0.1-0.1-0.1-0.4,0-0.5c0.3-0.5,0.5-0.9,0.8-1.3c0.5-0.6,1.1-1.3,1.5-1.9c0.1-0.3,0.3-0.6,0.1-0.9
			c-0.1-0.4-0.5-0.3-0.8,0c-0.5,0.1-0.9,0.4-1.4,0.8c-2.5,1.7-5.1,3.3-7.9,4.8c-1.4,0.8-3,1.1-4.7,1c-2.3-0.1-2.9-1.1-2-3.3
			c0.4-1,0.9-2,0.9-3.2c0.3-4.1,1.9-7.6,3.7-10.9c2.2-3.9,4.7-7.5,7.2-11.2c1.5-2.3,3-4.6,4.8-6.7c1.4-1.5,1.9-3.3,2.3-5.2
			c0.3-1.4-0.5-2.7-0.1-3.9c-1.1-0.9-1.3-2.3-1.8-3.3c-0.4-0.6-1-1.1-1.7-1.4c-0.8-0.3-1.6-0.5-2.3-0.9c-1-0.6-2.2-0.6-3.3-0.4
			c-2.4,0.5-5.1,0.6-7.6,0.6c-1,0-1.3-0.4-0.9-1.4c1.1-3.3,2.8-6.5,4.1-9.8c0.6-1.6,0.8-3.1,0.9-4.6l0.6-1l-0.4-0.1
			c0-0.3,0.1-0.6,0.1-0.9c0-0.6-0.4-1.4-0.8-2c-1.1-1.9-2.9-3-5.1-3.8c-3.8-1.3-7.6-1.9-11.7-1.3c-4.2,0.8-7.9,2-10.5,5.5
			c-0.8,1-1.6,1.9-2.7,2.7c-3.2,2.5-4.7,6-4.7,10.2c0.1,2.5,0.8,4.8,1.5,7.2c0.4,1,1,1.9,2.2,1.9c1.4,0.3,2.2,1.1,3,1.9
			c1.1,1.1,2,2.4,3.1,3.4c0.6,0.6,0.8,1.1,0.8,1.7c-5.4,4.4-22.8,18.7-23.2,20c-0.1,0.2,0,0.4,0.2,0.6c-0.3,0.4-0.5,0.7-0.8,1.1
			c-0.6,1.1-0.5,2.7,0.5,3.2c1,0.6,2.2,1.1,3.4,1.4c0.9,0.3,1.7-0.6,2.4-1.1c5.6-4.2,11-8.5,16-13.3c2.9-2.9,6.2-5.3,8.9-8.5
			c0.9-1,2-1.3,3.3-1.3c2.9,0.3,6,0.3,8.9,0.1c1.1,0,2.5-0.6,3.2,0.5c0.5,1.1-0.6,2-1.3,2.9c-3.2,4.4-5.6,9.4-7.6,14.5
			c-1.5,3.8-2.5,7.9-2.5,12.2c0,4.1,0.6,7.6,3.4,10.8c1.5,1.8,3.2,3.3,5.3,4.1c1,0.4,1.8,1.3,2.8,1.1c2-0.4,3.9,0,5.8,0
			c1.1,0,2-0.3,2.8-1c0.5-0.4,0.9-0.8,1.4-1.1c4-2.5,7.8-5.4,11-8.9c0.8,3,2.9,5.5,5.1,7.2c1.9,1.4,4.2,1,6.3,0.9
			c0.9,0,1.5-0.4,2.2-1c1.8-1.8,3.8-3.4,5.8-4.8c1.7-1.1,2.9-2.5,4.1-4.2c1-1.4,2.3-2.5,3.7-3.7c0-0.1-0.1-0.3-0.1-0.4
			s0.1-0.1,0.1-0.3c1.1-1.7,3.2-2.8,4.7-4.2c0.3-0.3,0.5-0.9,1-0.5c0.4,0.3,0.1,0.6,0,1c-0.3,0.8-0.5,1.6-0.6,2.4
			c-0.5,1.9-0.9,3.9-1.1,6c-0.3,2.8,0.8,4.8,3,6.4c0.8,0.5,1.4,1,1.9,1.9c0.4,0.6,1.1,1.1,1.8,1.6c1.6,1.7,3.8,2,6,2.5
			c2.2,0.5,4.1,0,5.6-1.5c1.3-1,2.5-1.8,3.8-2.7c4.3-3,8.6-6,11.7-10.4c0.4-0.5,0.9-0.9,1.3-1.4c2.3-2.4,4.6-4.7,7-7.1
			c0.6-0.8,1.1-1.6,1.9-2.3c0.5-0.3,0.9-0.8,1.4-1.2c-0.4,1.1-1,2.1-1.7,3.2l0-0.1c-0.2,0.5-0.4,0.8-0.6,1.3c0,0,0,0,0,0
			c-0.1,0.5-0.4,0.9-0.6,1.3c-1.1,1.4-1.9,2.9-1.9,4.7c-0.2,0.4-0.4,0.8-0.6,1.1c-0.6,0.1-1.1,0.3-1.5,0.8c-1.1,2-2.3,4.2-3.4,6.2
			c-0.3,0.5-0.4,1.1,0,1.5c1.4,1,2,2.5,2.5,4.2c0.1,0.6,0.6,1,1.4,0.9c0.3-0.1,0.8-0.3,0.9-0.1c1.3,1,1.8,0.1,2.4-0.8
			c2-2.9,3.9-6,6.1-8.8c2.8-3.2,5.6-6.5,8.4-9.7c2.9-3.3,5.6-6.6,8.6-9.8c3.1-3.2,5.7-6.6,8.6-9.9c3.1-3.4,6.6-6.4,9.5-9.8
			c1.5-1.8,3.3-3.3,5-4.8c0.1-0.1,0.4-0.1,0.6-0.1c0,0.1,0.1,0.4,0.1,0.5c-0.4,1.5-0.8,3-1.3,4.4c-1.4,3.9-2.7,7.9-5.2,11.3
			c-0.3,0.3-0.3,0.5-0.4,0.9c-0.8,3.2-2.4,6.1-4.1,9c-1,2.2-1.8,4.2-2.3,6.4c-0.1,0.9-0.4,1.7-0.6,2.6c-0.1,0.3-0.2,0.6-0.2,0.9
			c0,0.1,0.1,0.1,0.1,0.2c0,0.3-0.1,0.6-0.1,0.9c0.3,6.1,3.4,10.6,7.6,14.6c0.3,0.4,0.9,0.5,1.4,0.6c0.8,0.4,1.5,0.6,2.3,0.9
			c2.7,0.8,5.3,0.9,8-0.1c2.2-0.9,4.2-2.2,6.4-3.3c1.1-0.5,2.4-0.9,3.2-1.8c2.8-2.9,6.3-4.7,8.8-8c0.1-0.1,0.2-0.2,0.3-0.3
			c0.3,1.1,0.7,2.2,1,3.2c0.6,2.2,1.9,4.2,3.8,5.1c1.9,0.9,3.3,2.3,4.8,3.4c1.1,0.8,2.2,1.4,3.4,1.6c2.5,0.6,5.1,1,7.7,1
			c0.3,0,0.6,0,0.9-0.1c4.2-1.3,8.5-2.8,12.3-5.1c2.5-1.6,5-3.7,7.4-5.6c2.9-2.3,5.7-4.9,8.4-7.5c0,2.1,0.2,4.2,0.9,6.2
			c0.4,1.4,1,2.5,2,3.6c1.1,0.9,2,1.9,2.7,3.2c0.6,1,1.5,1.8,2.4,2.5c2.9,2.5,6.5,3.7,10.2,4.6c2.5,0.6,5.2,0.1,7.6-0.6
			c2.4-0.9,4.6-2.2,6.5-3.9c0.5-0.6,1.3-1,1.9-1.4c2.9-1.3,5.3-3.4,8.1-5c3.2-1.8,6.1-3.9,9.1-6c1.9-1.1,3.6-2.8,5.2-4.3
			c0.4-0.3,0.5-0.6,0.4-1c0,0,0,0,0,0l5.7-5.7c1-0.9,2.1-1.8,3.1-2.8c0.7-0.6,1.4-1.4,1.9-2.3l2.3-2.3c1.3-0.4,2-1.6,3.1-2.4
			c2.5-1.5,3.9-4.1,5.8-6.2C1921.2,385.6,1921.7,384.8,1921.2,384.2z M1616.8,364.5c0,0.1,0,0.3-0.1,0.4
			C1616.6,364.7,1616.7,364.6,1616.8,364.5z M1613.3,371.9c0,0,0-0.1-0.1-0.1c0.2-0.2,0.4-0.4,0.6-0.6
			C1613.7,371.4,1613.5,371.7,1613.3,371.9z M1610.9,372.4c-2.5-0.4-5.1-0.6-7.6-1.4c-1.5-0.5-2-1.4-1.8-3c0.3-0.9,0.6-1.8,1-2.5
			c1.5-3.3,3.9-6,6.7-8.3c1.9-1.5,3.8-3.3,6.2-4.3c1.3-0.5,2.5-0.8,3.8-0.8c0.8,0,1.1,0.5,0.9,1.3c-0.1,1-0.5,2-0.8,3.1
			c-0.1,0.7,0,1.4,0.3,2c-0.2,1.1-0.5,2.4-1,3.8c-0.7,0.3-1.6,0.2-2,0.8c-0.6,0.9-1.1,1.9-1.6,2.9c-0.4,0.6,0.1,0.9,0.6,1
			c-0.1,1.6-1.4,2.6-1.7,4c0.1-0.1,0.1-0.1,0.2-0.2c-0.1,0.1-0.2,0.2-0.3,0.3c0,0,0-0.1,0-0.1c-0.1,0.1-0.1,0.1-0.2,0.2
			c-0.1,0.3-0.4,0.4-0.6,0.6v0.1C1612.6,372.2,1611.7,372.4,1610.9,372.4z M1763.5,370.1L1763.5,370.1
			C1763.5,370.1,1763.5,370.1,1763.5,370.1C1763.5,370.1,1763.5,370.1,1763.5,370.1z M1729.7,393.2c-0.1,0.2-0.2,0.4-0.3,0.6
			c-0.1,0.1-0.2,0.1-0.4,0.2C1729.2,393.7,1729.4,393.4,1729.7,393.2z M1870.3,396.4l0.3-0.1v0.1L1870.3,396.4z M1884.9,373.5
			c0.1,0,0.1,0,0.3,0c1-0.2,2-0.5,2.8,0.3c0.8,1,0.1,1.9-0.4,2.8c-0.8,1.4-1.5,3-2.5,4.3c-2.9,3.2-5.7,6.9-9.8,8.9
			c-1,0.5-2,1.1-3,1.9c-2.8,2.2-6.2,3.3-9.8,3.7c-0.2,0.1-0.4,0.1-0.7,0.1l-1.5-1.8c0.3-0.6,0.7-1.2,1.1-1.7
			c3.9-4.3,7.9-8.6,12.3-12.3C1877,376.8,1880.9,374.8,1884.9,373.5z"/>
		<path class="st1" d="M1430.6,255l-3.6,0h-25.3l-24.8-50.2h-30V255h-25.7V129h68.7c20.9,0,37.9,17,37.9,37.9
			c0,16.3-10.2,30.1-24.6,35.5L1430.6,255z M1385.2,184.5c9.3,0,16.8-7.5,16.8-16.7c0-9.3-7.4-16.8-16.7-16.8H1347v33.6H1385.2z
			 M1215.1,189.5c-6.8-4.4-14.4-7-30.6-10.9c-27.6-6.3-29.2-8.5-29.2-16.3c0-9.1,7.1-15,21.2-15c13.5,0,20.8,4.9,23.6,16.1h25.1
			c-2.3-24-19.7-37.3-47.5-37.3c-28.3,0-47.3,14.6-47.3,38c0,11.1,4.5,20,13.2,25.7c5.5,4,17.8,8,34.3,12.2l2.5,0.6l4.8,1
			c4,1,8.1,2.4,10.5,3.5c6.8,3.4,9,6.8,9,12.3c0,10.1-8.3,17-24,17c-17.5,0-26.8-6.7-29.1-20.6h-25.5c1.9,26.6,21.7,42,53,42
			c30.9,0,50.9-15,50.9-40.4C1230.1,205.7,1225,196.3,1215.1,189.5 M1516.8,126.1c37.8,0,67.3,29,67.3,65.8c0,37.1-29.7,66-67.3,66
			c-38.1,0-67.4-28.6-67.4-65.7C1449.4,155.2,1479.2,126.1,1516.8,126.1 M1516.8,234.5c22.6,0,41.1-19.1,41.1-42.6
			c0-23.3-18.3-42.4-41.1-42.4c-22.7,0-41.3,19.1-41.3,42.4C1475.6,215.5,1494.1,234.5,1516.8,234.5 M2140.4,255l-3.6,0h-25.3
			l-24.8-50.2h-30V255H2031V129h68.8c21,0,37.9,17,37.9,37.9c0,16.3-10.3,30.1-24.6,35.5L2140.4,255z M2094.9,184.5
			c9.4,0,16.9-7.5,16.9-16.7c0-9.3-7.4-16.8-16.7-16.8h-38.3v33.6H2094.9z M923.6,222.2l-31.2-93.3h-27.8l45,126.1H937l45.6-126.1
			h-27.4L923.6,222.2z M1671.8,149.5c14.9,0,28,8.2,35.8,21.6h28.2l-1.2-2.9c-9.5-24.9-33.8-42.1-62.9-42.1
			c-37.8,0-67.4,29.1-67.4,66.2c0,37.1,29.6,65.7,67.4,65.7c29.1,0,53.4-17.3,62.9-42.2l1.2-2.9h-28.2
			c-7.8,13.5-20.9,21.7-35.8,21.7c-22.8,0-41.3-19.3-41.3-42.6C1630.6,168.6,1649.1,149.5,1671.8,149.5 M1904.4,255h92.1v-22.6
			h-66.4v-27.6h47.4v-21.6h-47.4v-31.6h66.4v-22.7h-92.1V255z M1838.6,182.2h-51.3v-53.3h-25.7V255h25.7v-50.2h51.3V255h25.7V128.9
			h-25.7V182.2z M1007.8,255h92v-22.6h-66.4v-27.6h47.4v-21.6h-47.4v-31.6h66.4v-22.7h-92V255z M828.7,128.9h29l-47.3,77.7V255
			h-25.7v-48.6l-47.5-77.5H767l31,54.5L828.7,128.9z"/>
		<path class="st1" d="M545.8,212.9c0,0,0.1,0,0.2,0.1c0-0.1,0-0.1,0-0.2L545.8,212.9 M546,213c9.8,60.9-4.1,124.1-55.1,158.8
			c19.5,21.7,58,37,98,33.3c11.8-21.3,18.6-45.8,18.6-72C607.5,283.6,583.1,239.9,546,213 M459.1,509.1
			c-97.3,0-176.1-78.8-176.1-176c0-97.3,78.8-176.1,176.1-176.1c97.2,0,176,78.8,176,176.1C635.2,430.3,556.4,509.1,459.1,509.1
			 M459.1,126.1c-114.3,0-207,92.7-207,207c0,114.3,92.6,206.9,207,206.9C573.4,540,666,447.3,666,333.1
			C666,218.8,573.4,126.1,459.1,126.1 M315,300.6h-0.6c-2.3,10.4-3.6,21.3-3.6,32.4c0,67.7,45.4,124.8,107.5,142.5v-60.7
			C418.3,353.1,372.9,306.1,315,300.6 M459.1,184.7c-60.8,0-113.1,36.6-136.1,88.8c41.1,5.1,76.5,27.9,98.7,60.4
			c9.3-65.5,63.6-105.2,124.1-121.1c-0.6-0.4-1-0.8-1.5-1.1C520.2,194.7,490.8,184.7,459.1,184.7 M450.1,364.3
			c45.1-22,74.5-62.4,71.3-113.7c-48.1,18-74.5,63.8-74.5,112l0,118.3c4,0.4,8.1,0.5,12.3,0.5c43.3,0,82.4-18.7,109.5-48.3
			C517.9,431,476.3,406.8,450.1,364.3"/>
	</g>
</g>
<g id="_x23_Dmz">
</g>
</svg>
