<?xml version="1.0" encoding="utf-8"?>
<!-- Generator: Adobe Illustrator 25.0.0, SVG Export Plug-In . SVG Version: 6.00 Build 0)  -->
<svg version="1.1" id="Layer_1" xmlns="http://www.w3.org/2000/svg" xmlns:xlink="http://www.w3.org/1999/xlink" x="0px" y="0px"
	 viewBox="0 0 512 512" style="enable-background:new 0 0 512 512;" xml:space="preserve">
<style type="text/css">
	.st0{fill:#020202;}
	.st1{fill:#010101;}
</style>
<g>
	<path class="st0" d="M235,0.1c13.3,0,26.7,0,40,0c0.3,1.1,1.2,0.9,2,0.9c7.8,0.5,15.5,1.6,23.3,2.9C408,22.4,493.3,110,509.2,218.2
		c0.8,5.8,0.5,11.8,2.7,17.3c0,13.6,0,27.3,0,40.9c-1.6,0.5-0.9,1.9-1.1,3c-1.2,7.9-2,15.8-3.5,23.6
		c-10.6,54.5-35.9,101.1-76.8,138.7c-59.1,54.4-129.2,76.7-208.9,66.7c-50.6-6.3-95.3-27-133.6-60.7C41.1,406.6,12.6,355,2.9,293.3
		c-0.9-5.6-0.5-11.4-2.8-16.8c0-14,0-27.9,0-41.9c1.3-0.4,0.9-1.6,1-2.5c1.1-10.4,2.7-20.7,4.8-31C27.5,98.8,114.5,17.6,218.2,2.9
		C223.8,2.1,229.6,2.4,235,0.1z M256,32C132.6,32,32.1,132.4,32.1,255.5C32.1,378.6,132.7,479,256,479
		c123.4,0,223.9-100.4,223.9-223.5C479.9,132.4,379.4,32,256,32z"/>
	<path class="st1" d="M176.6,160.6c5.3-0.2,9.3,2.3,12.8,5.8c21,21.1,42.2,42,63.2,63.2c2.8,2.8,4.2,2.7,6.9-0.1
		c21.2-21.4,42.5-42.7,63.9-63.9c9.1-9,23.3-5.9,27,5.8c2.1,6.6,0.1,12.3-4.8,17.2c-21,20.9-41.8,41.9-63,62.6
		c-3.6,3.5-3.1,5.1,0.2,8.3c21.1,20.8,42,41.7,62.9,62.7c9.4,9.5,6.1,24-6.2,27.4c-6.5,1.8-12-0.3-16.7-5.1
		c-21-21.1-42.2-42-63.1-63.2c-3-3-4.3-2.9-7.2,0c-21.1,21.3-42.3,42.4-63.5,63.5c-9.3,9.2-23.7,6.1-27.2-5.9
		c-2-6.7,0.2-12.2,5.1-17.1c21.2-21,42.1-42.1,63.3-63c2.7-2.6,3-4,0.1-6.9c-21.5-21.1-42.7-42.4-64-63.8c-8.3-8.3-6.5-20.9,3.4-26
		C171.8,161.1,174.2,160.5,176.6,160.6z"/>
</g>
</svg>
