<?xml version="1.0" encoding="utf-8"?>
<!-- Generator: Adobe Illustrator 25.0.0, SVG Export Plug-In . SVG Version: 6.00 Build 0)  -->
<svg version="1.1" id="Calque_1" xmlns="http://www.w3.org/2000/svg" xmlns:xlink="http://www.w3.org/1999/xlink" x="0px" y="0px"
	 viewBox="0 0 42.3 42.3" style="enable-background:new 0 0 42.3 42.3;" xml:space="preserve">
<style type="text/css">
	.st0{fill:#604535;}
	.st1{fill:#FFFFFF;}
</style>
<g>
	<g>
		<path class="st0" d="M21.2,0c11.7,0,21.2,9.5,21.2,21.2c0,11.7-9.5,21.2-21.2,21.2C9.5,42.3,0,32.9,0,21.2C0,9.5,9.5,0,21.2,0"/>
	</g>
	<g>
		<path class="st1" d="M31.8,29.2c-1.5,2-2.4,2.8-3.7,3.6c-1.9,1.3-4.1,1.9-6.8,1.9c-7.6,0-13.2-5.6-13.2-13.2S13.8,8.2,21.3,8.2
			c6.9,0,12,4.6,12,11c0,3.8-1.7,7-4.8,8.8c-1.2,0.7-2.6,1.2-3.5,1.2c-1.2,0-1.9-0.7-1.9-2c-0.9,1.2-2.2,1.8-3.7,1.8
			c-3.2,0-5.4-2.6-5.4-6.2c0-4.6,3-8,6.9-8c1.9,0,3.4,0.8,4.2,2.4l0.4-2H28l-1.7,10c-0.1,0.5-0.1,1-0.1,1.1c0,0.3,0.2,0.6,0.6,0.6
			c0.7,0,1.9-0.9,2.9-2.1c1.1-1.3,1.8-3.2,1.8-5c0-5.5-4.1-9.4-9.9-9.4c-6,0-10.8,4.9-10.8,11.2c0,6.3,4.7,11.1,10.8,11.1
			c2.9,0,5-0.9,7.6-3.4H31.8z M17.2,22.5c0,2.1,1.3,3.5,3.1,3.5c1.5,0,2.5-0.7,3.1-2.1c0.4-0.8,0.6-2,0.6-2.8c0-2.1-1.1-3.4-2.9-3.4
			C19,17.8,17.2,19.9,17.2,22.5z"/>
	</g>
</g>
</svg>
